<svg xmlns="http://www.w3.org/2000/svg" xmlns:xlink="http://www.w3.org/1999/xlink" width="40" zoomAndPan="magnify" viewBox="0 0 30 30.000001" height="40" preserveAspectRatio="xMidYMid meet" version="1.0"><defs><g/><clipPath id="f33393435a"><path d="M 0.484375 0 L 29.515625 0 L 29.515625 29.03125 L 0.484375 29.03125 Z M 0.484375 0 " clip-rule="nonzero"/></clipPath><clipPath id="8e7c914575"><path d="M 0.652344 3 L 1.347656 3 L 1.347656 4 L 0.652344 4 Z M 0.652344 3 " clip-rule="nonzero"/></clipPath><clipPath id="c5a206bbf1"><rect x="0" width="2" y="0" height="5"/></clipPath><clipPath id="e65c15f720"><path d="M 7.742188 7.257812 L 22.257812 7.257812 L 22.257812 21.773438 L 7.742188 21.773438 Z M 7.742188 7.257812 " clip-rule="nonzero"/></clipPath><clipPath id="bcc26fdc6b"><path d="M 0.742188 0.257812 L 15.257812 0.257812 L 15.257812 14.773438 L 0.742188 14.773438 Z M 0.742188 0.257812 " clip-rule="nonzero"/></clipPath><clipPath id="acbf22ace8"><rect x="0" width="16" y="0" height="15"/></clipPath></defs><g clip-path="url(#f33393435a)"><path fill="#ffffff" d="M 0.484375 0 L 29.515625 0 L 29.515625 29.03125 L 0.484375 29.03125 Z M 0.484375 0 " fill-opacity="1" fill-rule="nonzero"/><path fill="#163e64" d="M 0.484375 0 L 29.515625 0 L 29.515625 29.03125 L 0.484375 29.03125 Z M 0.484375 0 " fill-opacity="1" fill-rule="nonzero"/></g><g transform="matrix(1, 0, 0, 1, 14, 12)"><g clip-path="url(#c5a206bbf1)"><g clip-path="url(#8e7c914575)"><g fill="#000000" fill-opacity="1"><g transform="translate(0.711038, 3.416131)"><g><path d="M 0.140625 0 L 0.140625 -0.375 L 0.515625 -0.375 L 0.515625 0 Z M 0.140625 0 "/></g></g></g></g></g></g><g clip-path="url(#e65c15f720)"><g transform="matrix(1, 0, 0, 1, 7, 7)"><g clip-path="url(#acbf22ace8)"><g clip-path="url(#bcc26fdc6b)"><path fill="#3fffb0" d="M 0.742188 0.257812 L 15.257812 0.257812 L 15.257812 14.773438 L 0.742188 14.773438 Z M 0.742188 0.257812 " fill-opacity="1" fill-rule="nonzero"/></g></g></g></g></svg>